<?xml version="1.0" encoding="utf-8"?>
<!-- Generator: Adobe Illustrator 26.4.1, SVG Export Plug-In . SVG Version: 6.00 Build 0)  -->
<svg version="1.1" xmlns="http://www.w3.org/2000/svg" xmlns:xlink="http://www.w3.org/1999/xlink" x="0px" y="0px"
	 viewBox="0 0 300 300" style="enable-background:new 0 0 300 300;" xml:space="preserve">
<style type="text/css">
	.st0{fill:#00FFFF;}
	.st1{fill:#FFFFFF;}
</style>
<g id="background">
	<g>
		<path class="st0" d="M244.89,295H55.11C27.44,295,5,272.56,5,244.89V55.11C5,27.44,27.44,5,55.11,5h189.78
			C272.56,5,295,27.44,295,55.11v189.78C295,272.56,272.56,295,244.89,295z"/>
	</g>
</g>
<g id="F">
	<g>
		<g>
			<path class="st1" d="M134.42,188.3c-18.11,0-31.7-5.08-40.79-15.25c-9.08-10.17-13.62-25.41-13.62-45.74
				c0-19.27,4.69-34.2,14.08-44.79c9.39-10.58,22.61-15.87,39.66-15.87c8.61,0,16.04,1.35,22.29,4.04
				c6.25,2.69,11.12,6.51,14.62,11.46l-13.83,15.91c-2.56-3.28-5.76-5.85-9.62-7.71c-3.86-1.86-8.01-2.79-12.46-2.79
				c-10,0-17.76,3.39-23.29,10.17c-5.53,6.78-8.29,16.36-8.29,28.75c0,13.61,2.78,23.82,8.33,30.62
				c5.55,6.8,13.86,10.21,24.91,10.21c5.28,0,9.93-0.51,13.96-1.54c4.03-1.03,7.32-1.9,9.87-2.62l7.92,20.16
				c-2.45,0.72-6.72,1.74-12.83,3.04C149.23,187.65,142.26,188.3,134.42,188.3z M126.76,145.64v-20.25h40.91v20.25H126.76z
				 M146.34,183.3v-57.91h21.83v57.91H146.34z"/>
		</g>
	</g>
	<g>
		<g>
			<path class="st1" d="M146,243.63V125.31h22v118.32H146z M146,145.56v-20.25h81.16v20.25H146z M146,199.55v-20.41h64.74v20.41H146
				z"/>
		</g>
	</g>
</g>
</svg>
